<svg id="Camada_1" data-name="Camada 1" xmlns="http://www.w3.org/2000/svg" viewBox="0 0 226 226"><defs><style>.cls-1{fill:#fff;}.cls-1,.cls-2{stroke:#262626;stroke-miterlimit:10;}.cls-2,.cls-3{fill:#323333;}</style></defs><title>DojoLogo</title><circle class="cls-1" cx="113" cy="113" r="112.5"/><path class="cls-2" d="M150.44,37.09a57.89,57.89,0,0,1,33.11,10.36c1.1.78,24.36,17.82,24,46.58-.43,30.39-26.92,47.55-29,48.82-22.49,14.05-36.44.73-57.76,15.22-14,9.5-25.8,27.33-25.74,47.74.06,21.08,12.78,35.19,15.83,38.39,15.61,16.41,35.4,17.71,39.56,17.89,61.71,0,112.5-50.79,112.5-112.5S212.15,37.09,150.44,37.09Z" transform="translate(-37.44 -36.59)"/><path class="cls-3" d="M173.33,86.63s-.36,0-.46-.17a.94.94,0,0,1,0-.09l.09-6.56h-.06a.82.82,0,0,1-.25-.06.51.51,0,0,1-.2-.19l0,0c-.12-.29-.19-.74-.12-.79l0,0h.07a5.82,5.82,0,0,1,.59,0c-.5-4.62-.72-6.73-.79-7.42,0,0,0-.17,0-.33-.05-.42-.13-1.13-.25-2s-.22-1.55-.39-2.48c0-.28-.09-.51-.12-.66a.75.75,0,0,1,.05-.37.93.93,0,0,1,.15-.25c.06-.09.09-.1.1-.16a.32.32,0,0,0-.05-.28c-.15-.31-.3-.47-.39-.65a1.35,1.35,0,0,1-.15-.54,1.37,1.37,0,0,1-.1.35,3.29,3.29,0,0,1-.26.44,1.29,1.29,0,0,0-.22.47,1,1,0,0,0,0,.47c0,.16.08.15.13.32a1.33,1.33,0,0,1,0,.42c0,.23,0,.41,0,.42,0,.24-.2,1.2-.45,2.5l-.12.63c-.17.88-.48,3.36-1.07,9.09h.55l.11,0s0,0,0,0,0,0,0,0a.37.37,0,0,1,0,.08c0,.27,0,.33,0,.33a1.51,1.51,0,0,1-.11.34.31.31,0,0,1-.1.15.46.46,0,0,1-.12.09.58.58,0,0,1-.17,0h-.14c0,1.68,0,3.36.07,5l-.64-.84V79.78h-.09a.61.61,0,0,1-.23,0,.45.45,0,0,1-.17-.17.27.27,0,0,1-.06-.11,1.55,1.55,0,0,1-.11-.44,1.4,1.4,0,0,1,0-.23.15.15,0,0,1,0-.06s0,0,0,0a.1.1,0,0,1,.08,0l.19,0h.32l-1.63-12.89a.44.44,0,0,1,0-.15.45.45,0,0,1,.06-.2,1.14,1.14,0,0,1,.13-.22c.06-.08.09-.1.1-.15a.29.29,0,0,0,0-.17.72.72,0,0,0-.12-.25l-.22-.35a2.3,2.3,0,0,1-.16-.27,1.45,1.45,0,0,1-.1-.47.78.78,0,0,1-.05.27,1.2,1.2,0,0,1-.14.31c-.08.13-.1.11-.22.28a1.58,1.58,0,0,0-.17.29,1,1,0,0,0-.07.25.91.91,0,0,0,0,.25,1,1,0,0,0,.06.21.45.45,0,0,0,.06.12.87.87,0,0,1,.06.23,1.18,1.18,0,0,1,0,.3c0,.17,0,.27,0,.42s0,.21-.05.25v0c0,.09-.5,3.55-1.66,11.94H165l.11,0,.05,0,0,0a.21.21,0,0,1,0,.08,1.49,1.49,0,0,1,0,.33,1.12,1.12,0,0,1-.15.43.68.68,0,0,1-.12.12l-.14.06a1.07,1.07,0,0,1-.23,0,.79.79,0,0,0,0,.41c.05.16.14.26.14.42a.56.56,0,0,1-.05.18,2.89,2.89,0,0,1-.49-.21c-.25-.12-.42-.23-.51-.28a8.13,8.13,0,0,0-1-.51l.53,1.75a9.09,9.09,0,0,1-.33,1.38,3.52,3.52,0,0,1-.71,1.45,2.57,2.57,0,0,1-.62.49,2.69,2.69,0,0,1-1.67.27,2.88,2.88,0,0,1-2.23-1.45,5.06,5.06,0,0,1-.13-.73c-.08-.55-.1-1-.11-1.14A11,11,0,0,0,157,80a7.77,7.77,0,0,1-.2-.84,3.83,3.83,0,0,1-.07-.8.17.17,0,0,1,0-.13s0,0,.1,0a.38.38,0,0,1,.18,0l1.9.56a.24.24,0,0,0,.16-.12c0-.06,0-.11,0-.21a.65.65,0,0,1,.06-.38.37.37,0,0,1,.2-.19.47.47,0,0,1,.19,0l.36,0a3.4,3.4,0,0,1,.17-.6.24.24,0,0,0,0-.24.15.15,0,0,0-.09-.09,2.18,2.18,0,0,0-.79-.31c-.74-.08-.81-.43-1.86-.59a6.72,6.72,0,0,1-1.22-.24.84.84,0,0,1-.54-.37.64.64,0,0,1,0-.45.65.65,0,0,1,.15-.3,2,2,0,0,1,.28-.32l0-.28-.53-.76-.15-.07c-.28-.09-.42,0-.64-.06a.79.79,0,0,1-.37-.28c-.08-.11-.05-.15-.19-.43a1.82,1.82,0,0,0-.16-.31,3.38,3.38,0,0,0-.25-.31l-.23-.26a1.47,1.47,0,0,0-.44-.09h-.26a.68.68,0,0,1-.24.25.68.68,0,0,1-.41.1,1.28,1.28,0,0,1-.39-.2,2.78,2.78,0,0,1-.42-.34.86.86,0,0,1-.2-.26.5.5,0,0,1,0-.32.54.54,0,0,1,.27-.25.94.94,0,0,1,.31-.08l2,0s.25,0,.33-.16,0-.12,0-.31a1.24,1.24,0,0,0-.43-.58A2.15,2.15,0,0,0,153,69a1,1,0,0,1-.43-.25.81.81,0,0,1-.12-.22,3.29,3.29,0,0,1,0-.42,4.58,4.58,0,0,1,.13-.53l.21-.24a4.78,4.78,0,0,0,.51-.58,1.49,1.49,0,0,0,.24-.57,1.52,1.52,0,0,0,0-.33c0-.2,0-.47-.06-.81a2.18,2.18,0,0,1-.14-.65,2.37,2.37,0,0,1,.09-.9c.08-.29.15-.3.18-.53a1.49,1.49,0,0,0-.06-.65,2.65,2.65,0,0,0-.39-.86,9,9,0,0,1-.35-1,1,1,0,0,0-.27-.5.62.62,0,0,0-.37-.18.61.61,0,0,0-.41.25.34.34,0,0,1-.15.14.23.23,0,0,1-.15,0,.25.25,0,0,1-.15-.14,5.9,5.9,0,0,0,.06-.71,10.63,10.63,0,0,1,0-1.23,1.82,1.82,0,0,0,0-.48.85.85,0,0,0-.15-.52,1,1,0,0,0-.51-.28,1.31,1.31,0,0,0-.67-.08,1.48,1.48,0,0,0-.52.26,1,1,0,0,1-.37.21.76.76,0,0,1-.26,0,1.17,1.17,0,0,0-.71.25,1,1,0,0,0-.24.59c-.22,1.17-.26.91-.32,1.48a11.4,11.4,0,0,0,0,1.7.81.81,0,0,0,.09.29.5.5,0,0,0,.26.23.67.67,0,0,0,.48,0c.15-.07.2-.15.34-.16a.37.37,0,0,1,.17,0,.24.24,0,0,1,.11.13l-1,.53-.12.08a1,1,0,0,0-.36.33.51.51,0,0,0,0,.31.65.65,0,0,0,.32.43.29.29,0,0,1,0,.23c0,.12-.15.17-.31.24a1.18,1.18,0,0,1-.44.12,1.26,1.26,0,0,1-.46-.07,3.57,3.57,0,0,0-.06.56.86.86,0,0,0,0,.23c0,.23.13.28.18.48a2,2,0,0,1,0,.42,2.14,2.14,0,0,0,0,.56.73.73,0,0,0,.28.38,1,1,0,0,0,.55.13,2.59,2.59,0,0,1,.41,0,.55.55,0,0,1,.33.09.44.44,0,0,1,.12.22,7.84,7.84,0,0,1,.24,1.23.29.29,0,0,1-.06.21.28.28,0,0,1-.23.08.74.74,0,0,1-.18,0,.62.62,0,0,0-.38.05c0,.08,0,.18,0,.31a2,2,0,0,1,0,.25,4.88,4.88,0,0,1-.62,1,.47.47,0,0,0-.06.15.25.25,0,0,0,0,.17c0,.11.19.12.2.13a10.08,10.08,0,0,1,1.87,0,.66.66,0,0,1,.41.2.52.52,0,0,1,.11.37c0,.17-.13.28-.33.47a1.93,1.93,0,0,1-.53.34.58.58,0,0,1-.37.07l-.28-.12-.22-.09a1.15,1.15,0,0,0-.24,0l-.68.25a.33.33,0,0,0-.14.09.66.66,0,0,0-.13.21c-.17.5-.18.62-.3.76a.8.8,0,0,1-.4.27,1.13,1.13,0,0,1-.23,0l-.17,0a.43.43,0,0,0-.21.11c-.3.31-.52.54-.62.63a.4.4,0,0,0-.08.15.27.27,0,0,0,0,.18,6.69,6.69,0,0,1,.32.67.64.64,0,0,1,0,.45.83.83,0,0,1-.54.37,6,6,0,0,1-1.22.24c-1.06.17-1.13.51-1.87.59a2.25,2.25,0,0,0-.79.31.25.25,0,0,0-.09.09.3.3,0,0,0,0,.24,2.37,2.37,0,0,1,.17.6l.37,0a.33.33,0,0,1,.18,0,.36.36,0,0,1,.2.19.68.68,0,0,1,.07.38c0,.11,0,.15,0,.21a.3.3,0,0,0,.16.12l1.9-.55a.46.46,0,0,1,.18-.06c.07,0,.09,0,.1,0s0,.1,0,.13a4.08,4.08,0,0,1-.06.8,7.25,7.25,0,0,1-.2.84,10.06,10.06,0,0,0-.32,1.88c0,.19,0,.58-.11,1.13a3.37,3.37,0,0,1-.14.73,2.82,2.82,0,0,1-2.22,1.45,2.66,2.66,0,0,1-1.67-.26,2.34,2.34,0,0,1-.62-.5,3.47,3.47,0,0,1-.72-1.45,10,10,0,0,1-.32-1.38l.53-1.75a8.13,8.13,0,0,0-1,.51l-.52.29-.48.21a.43.43,0,0,1-.05-.19c0-.16.08-.25.14-.41a1,1,0,0,0,0-.42.61.61,0,0,1-.22,0,.42.42,0,0,1-.14-.06.34.34,0,0,1-.12-.12,1.06,1.06,0,0,1-.16-.43c0-.08,0-.19,0-.33a.19.19,0,0,1,0-.08s0,0,0,0l0,0,.11,0h.62c-1.16-8.39-1.64-11.84-1.66-11.93v0a2.08,2.08,0,0,1,0-.26,2.75,2.75,0,0,1,0-.42,1.62,1.62,0,0,1,0-.3.87.87,0,0,1,.06-.23l.06-.12a.79.79,0,0,0,.06-.21,1.56,1.56,0,0,0,0-.25,1.05,1.05,0,0,0-.08-.25,1.57,1.57,0,0,0-.16-.29,3.24,3.24,0,0,1-.22-.28,1.24,1.24,0,0,1-.15-.31,2,2,0,0,1-.05-.27,1.45,1.45,0,0,1-.1.47c0,.09-.08.15-.15.28l-.23.34a.89.89,0,0,0-.12.26.37.37,0,0,0,0,.16c0,.06,0,.07.11.15s.08.12.13.22a.8.8,0,0,1,.07.35l-1.62,12.9h.51l.08,0,0,0a.18.18,0,0,1,0,.06,1.48,1.48,0,0,1,0,.23,1.9,1.9,0,0,1-.11.44l-.06.12a.59.59,0,0,1-.18.16.55.55,0,0,1-.22.05h-.1c0,1.41,0,2.82,0,4.23l-.64.85c0-1.68,0-3.36.07-5l-.14,0-.18,0a.46.46,0,0,1-.12-.09.86.86,0,0,1-.1-.16,1.59,1.59,0,0,1-.1-.33s0-.07,0-.33a.2.2,0,0,1,0-.08s0,0,0-.05,0,0,0,0a.27.27,0,0,1,.11,0h.54c-.58-5.73-.9-8.2-1.06-9.09-.05-.21-.08-.42-.12-.63-.25-1.3-.42-2.25-.46-2.49a3.38,3.38,0,0,1,0-.42,1.4,1.4,0,0,1,0-.43c0-.16.08-.16.13-.32a1.15,1.15,0,0,0,0-.46,1.38,1.38,0,0,0-.21-.48,2.62,2.62,0,0,1-.27-.44,1.28,1.28,0,0,1-.09-.35,1.47,1.47,0,0,1-.15.55c-.1.18-.24.33-.4.64a.45.45,0,0,0,0,.29s0,.06.11.15a2.35,2.35,0,0,1,.15.26,1,1,0,0,1,.05.36c0,.16-.08.39-.12.67-.17.92-.3,1.75-.4,2.47s-.2,1.55-.24,2c0,.16,0,.29,0,.33-.07.69-.3,2.8-.79,7.42a5.56,5.56,0,0,1,.58,0h0l.05,0,0,0a1.42,1.42,0,0,1-.12.79s0,0,0,.06a.46.46,0,0,1-.19.19,1,1,0,0,1-.25,0h-.07l.09,6.56a.19.19,0,0,1,0,.08c-.11.19-.44.17-.46.17h-1.7a1.06,1.06,0,0,1,.26.5,1.09,1.09,0,0,1,0,.55,1.64,1.64,0,0,1,.19.25,2.27,2.27,0,0,1,.3.65,1.78,1.78,0,0,0,.61-.06,1.72,1.72,0,0,0,.54-.24.43.43,0,0,1,.27.15c.14.18,0,.48,0,.5-.12.4-.1,14.7,0,39h13.13V105.56a9.37,9.37,0,0,1,18.7,0V128h12.92q0-19.53,0-39a.45.45,0,0,1,0-.5.42.42,0,0,1,.26-.15,2,2,0,0,0,.54.24,1.83,1.83,0,0,0,.62.06,5.84,5.84,0,0,1,.48-1.45q.13-.27.27-.51Zm-24.59-27a1,1,0,0,1,.19-.81l.16.73.13.63A.91.91,0,0,1,148.74,59.58Zm.61-.32c-.1-.32-.18-.62-.24-.89a2,2,0,0,1,.52.86,2.57,2.57,0,0,1,.08.44,4.68,4.68,0,0,1,0,.67A8.19,8.19,0,0,1,149.35,59.26Z" transform="translate(-37.44 -36.59)"/><path class="cls-3" d="M147.71,52.48c.17.88.38,1.68.57,2.5l.63,2.48,1.22,5-.3.07c-.37-1.65-.72-3.27-1.05-4.93S148.1,54.2,147.71,52.48Zm0,0c.36,1.61.77,3.22,1.2,4.89s.83,3.38,1.22,5.07l-.3.07c-.39-1.67-.79-3.33-1.15-5l-.55-2.5C148,54.15,147.87,53.28,147.71,52.48Z" transform="translate(-37.44 -36.59)"/><path class="cls-1" d="M137.55,183.94q2.08-4.62,4.19-9.25h15V231.5H146.14V183.94Z" transform="translate(-37.44 -36.59)"/></svg>